<svg xmlns="http://www.w3.org/2000/svg" xmlns:xlink="http://www.w3.org/1999/xlink" width="220" height="164" viewBox="0 0 220 164">
    <defs>
        <path id="prefix__a" d="M146.608 4.38c-5.588 2.428-10.556 5.616-14.905 9.564-.62.564-1.23 1.144-1.825 1.74-.563.562-1.11 1.137-1.645 1.723-.186.203-.363.413-.546.62-.341.385-.68.77-1.01 1.166-.217.26-.426.525-.637.79-.281.35-.56.701-.832 1.06-.225.295-.443.594-.661.894-.244.336-.485.674-.721 1.016-.225.325-.447.652-.664.983-.214.325-.424.655-.632.986-.22.352-.442.706-.655 1.065-.189.317-.37.638-.553.96-.217.38-.435.76-.643 1.148-.161.3-.313.608-.47.912-.214.417-.433.831-.638 1.256L106.927 5.042c-.556-1.11-1.482-1.665-2.777-1.665-1.297 0-2.221.555-2.776 1.665L87.55 32.618v.717c0-.3-.026-27.324-.078-27.601-.105-.555-.312-1.064-.625-1.526-.156-.23-.338-.451-.547-.659-.208-.208-.428-.39-.66-.546-.694-.468-1.493-.702-2.394-.702h-10.83c-.903 0-1.701.234-2.395.702-.232.156-.451.338-.66.546-.208.208-.39.428-.546.659-.312.462-.52.97-.625 1.526-.052.277-.078.565-.078.866v56.024c0 5.086-.833 9.292-2.499 12.619-.416.832-.86 1.621-1.328 2.366-.703 1.118-1.465 2.14-2.285 3.062-.82.923-1.699 1.749-2.636 2.476-.601.51-1.218.975-1.848 1.396-1.892 1.266-3.914 2.142-6.066 2.626-.74.185-1.452.348-2.134.486-1.366.278-2.616.462-3.749.554-.567.047-1.104.07-1.613.07-.833 0-1.705-.052-2.616-.156-.305-.034-.613-.075-.926-.122-.312-.046-.63-.098-.958-.155-.654-.116-1.337-.254-2.048-.417-.356-.08-.719-.167-1.089-.26-2.014-.484-4-1.36-5.961-2.626-.654-.421-1.304-.887-1.952-1.396-.903-.761-1.754-1.608-2.552-2.54-1.33-1.552-2.516-3.34-3.558-5.364-1.665-3.327-2.499-7.533-2.499-12.62V6.6c0-.3-.026-.59-.078-.866-.104-.555-.313-1.064-.625-1.526-.156-.23-.338-.451-.546-.659-.208-.208-.428-.39-.66-.546-.695-.468-1.494-.702-2.395-.702H4.523c-.833 0-1.588.234-2.265.702-.225.156-.443.338-.65.546-.209.208-.391.428-.547.659-.313.462-.521.97-.625 1.526-.052.277-.078.565-.078.866v56.163c0 1.641.064 3.239.19 4.794.064.777.144 1.544.24 2.299.381 3.022 1.017 5.87 1.909 8.544.222.67.46 1.327.716 1.975 2.034 5.268 4.997 9.755 8.884 13.45.452.45.919.89 1.4 1.318 2.408 2.138 5.196 3.987 8.363 5.547 1.267.624 2.595 1.202 3.983 1.733 5.183 2.032 11.153 3.05 17.91 3.05.973 0 1.925-.026 2.867-.068l1.964-.049c.56-.068 1.106-.147 1.647-.23 4.184-.452 8.047-1.345 11.571-2.703 5.462-2.125 10.044-4.992 13.746-8.597 1.518-1.517 2.888-3.15 4.126-4.887h48.846c.383.407.762.816 1.158 1.212 4.767 4.762 10.343 8.528 16.73 11.302 6.388 2.772 13.19 4.16 20.41 4.16 7.312 0 14.162-1.388 20.548-4.16.798-.348 1.583-.71 2.358-1.087 5.41-2.645 10.2-6.048 14.373-10.215.595-.595 1.176-1.203 1.74-1.823.565-.62 1.114-1.253 1.648-1.9 3.201-3.874 5.845-8.204 7.927-12.987 2.776-6.38 4.165-13.22 4.165-20.524 0-1.803-.086-3.581-.26-5.335-.174-1.754-.434-3.482-.781-5.187-.694-3.408-1.736-6.72-3.124-9.932-.695-1.607-1.45-3.16-2.27-4.663-.818-1.502-1.699-2.952-2.641-4.35-1.887-2.797-4.021-5.386-6.404-7.767-.596-.595-1.205-1.175-1.826-1.739-4.35-3.948-9.316-7.136-14.905-9.564C181.18 1.608 174.33.221 167.018.221c-7.22 0-14.022 1.387-20.41 4.16m10.594 81.606c-1.043-.356-2.066-.77-3.07-1.245-4.018-1.894-7.528-4.437-10.53-7.627-2.253-2.392-4.153-5.057-5.703-7.995-.258-.49-.507-.986-.746-1.492-.24-.505-.468-1.017-.687-1.537-.658-1.56-1.193-3.153-1.604-4.777-.41-1.626-.698-3.283-.863-4.973-.11-1.127-.164-2.268-.164-3.424 0-.566.014-1.13.041-1.69.11-2.246.438-4.45.986-6.613.274-1.083.603-2.155.987-3.216.192-.531.397-1.06.617-1.586 1.097-2.629 2.437-5.05 4.021-7.263.633-.886 1.306-1.738 2.018-2.558.356-.41.721-.81 1.096-1.204 3.003-3.141 6.513-5.662 10.53-7.557 1.005-.473 2.028-.887 3.07-1.243 1.564-.533 3.17-.933 4.817-1.2 1.648-.266 3.337-.4 5.07-.4 1.731 0 3.42.134 5.067.4 1.648.267 3.253.667 4.817 1.2 1.041.356 2.065.77 3.07 1.243 4.017 1.895 7.527 4.416 10.53 7.557.375.393.74.795 1.096 1.204.711.82 1.383 1.672 2.017 2.558 1.583 2.214 2.923 4.634 4.02 7.263.22.526.425 1.055.618 1.586.383 1.061.713 2.133.987 3.216.55 2.164.88 4.367.988 6.612.028.561.042 1.125.042 1.691 0 1.156-.055 2.297-.165 3.424-.165 1.69-.453 3.347-.865 4.973-.412 1.624-.947 3.217-1.604 4.777-.22.52-.449 1.032-.688 1.537-.238.506-.487 1.002-.746 1.492-1.55 2.938-3.45 5.603-5.7 7.995-3.003 3.19-6.513 5.733-10.53 7.627-1.005.474-2.029.89-3.07 1.245-3.127 1.066-6.422 1.598-9.885 1.598s-6.759-.532-9.885-1.598M91.377 70.912c-.464-.739-.464-1.663 0-2.774l10.968-22.881c.461-1.11 1.065-1.664 1.805-1.664s1.34.555 1.806 1.664l10.403 21.982s1.16 2.524.495 3.604c-.416.785-1.227 1.178-2.429 1.178h-20.55c-1.203 0-2.037-.369-2.498-1.11"/>
        <path id="prefix__d" d="M12.858.287l7.396 20.267C10.919 35.23 15.407 49.53 15.59 50.096l.004.012L.004 17.295C5.349 6.762 12.71.415 12.857.289"/>
        <path id="prefix__f" d="M11.111.232s3.975 7.73 5.982 10.938c3.042 4.86 6.084 9.114 6.084 9.114l-22.51-.268V3.098h8.01"/>
        <path id="prefix__h" d="M23.768.142v40.583S12.713 63.312 11.823 65.743c-.89 2.43 2.715 2.886 2.715 2.886H28.53v16.898l-27.984.268C8.454 74.25 8.454 62.098 8.454 62.098V29.286"/>
        <linearGradient id="prefix__b" x1="0%" x2="100%" y1="50%" y2="50%">
            <stop offset="0%" stop-color="#FF0028"/>
            <stop offset="100%" stop-color="#8A0000"/>
        </linearGradient>
    </defs>
    <g fill="none" fill-rule="evenodd">
        <g fill="#1A1A1A">
            <path d="M23.74 1.174l-10.92 23.52c-.114.25-.33.375-.649.375-.318 0-.534-.125-.648-.376L.636 1.173C.522.902.522.675.636.493.75.31.943.22 1.216.22H4.39c.296 0 .591.09.888.272.295.182.5.41.613.682l5.837 12.544c.113.25.261.375.443.375s.33-.125.444-.375l5.836-12.544c.114-.273.319-.5.614-.682.296-.182.591-.272.887-.272h3.175c.295 0 .5.09.614.272.113.182.113.41 0 .682M41.76 25.136h-2.696c-.296 0-.54-.101-.734-.306-.194-.205-.29-.454-.29-.75V1.275c0-.295.096-.546.29-.75.193-.205.438-.307.734-.307h2.696c.295 0 .546.102.75.307.205.204.308.455.308.75V24.08c0 .297-.103.546-.308.751-.204.205-.455.306-.75.306M65.035 12.968h5.528c.41 0 .854-.091 1.331-.273.5-.182.922-.443 1.263-.784.342-.34.637-.773.888-1.296.227-.477.341-1.09.341-1.84 0-.409-.046-.84-.136-1.295-.047-.25-.115-.495-.205-.733-.092-.239-.194-.472-.308-.7-.273-.453-.66-.84-1.16-1.158-.524-.318-1.194-.477-2.014-.477h-5.528c-.296 0-.546.102-.751.307-.204.204-.307.454-.307.75v6.442c0 .296.103.545.307.75.205.204.455.307.75.307m-2.081 12.168h-2.696c-.296 0-.546-.101-.75-.306-.206-.205-.308-.454-.308-.75V1.24c0-.294.102-.544.307-.75.205-.204.455-.305.751-.305h10.306c1.275 0 2.446.204 3.516.612 1.046.456 1.945 1.046 2.696 1.773.386.386.727.807 1.024 1.261.295.455.545.943.75 1.466.41 1.068.614 2.227.614 3.476 0 1.933-.466 3.58-1.399 4.944-.728 1.09-1.672 1.954-2.833 2.59-.25.137-.409.324-.477.562-.068.239-.012.472.17.7.842 1.135 1.644 2.21 2.407 3.22.762 1.011 1.552 2.086 2.371 3.222.182.25.233.5.154.75-.08.25-.268.374-.563.374h-3.447c-.296 0-.603-.079-.921-.238-.32-.159-.57-.352-.751-.58-.387-.523-.768-1.04-1.143-1.55-.376-.512-.757-1.029-1.144-1.551l-2.252-3.17c-.182-.25-.432-.455-.75-.614-.32-.159-.627-.24-.922-.24h-2.628c-.296 0-.546.104-.751.309-.204.203-.307.454-.307.749v5.828c0 .297-.097.546-.29.751-.194.205-.439.306-.734.306M109.469 4.412h-5.017c-.296 0-.546.102-.751.307-.205.204-.307.454-.307.75v18.61c0 .296-.102.546-.307.75-.205.206-.455.307-.751.307h-2.662c-.296 0-.546-.101-.75-.306-.205-.205-.308-.455-.308-.75V5.468c0-.296-.102-.546-.307-.75-.205-.205-.455-.307-.751-.307h-5.051c-.296 0-.546-.102-.75-.307-.205-.204-.308-.454-.308-.75V1.241c0-.294.103-.544.308-.75.204-.204.454-.306.75-.306h16.962c.295 0 .546.102.75.307.205.205.307.455.307.75v2.113c0 .296-.102.546-.306.75-.205.205-.456.307-.751.307M130.355 24.83c-1.365-.523-2.491-1.228-3.379-2.114-.956-.909-1.684-2.01-2.184-3.306-.501-1.272-.751-2.715-.751-4.329V1.276c0-.295.102-.545.307-.75.205-.205.444-.306.717-.306h2.696c.295 0 .546.101.751.306.205.205.307.455.307.75v13.77c0 1.251.205 2.285.614 3.102.41.796.91 1.444 1.502 1.944.636.5 1.285.829 1.945.988.364.091.7.159 1.007.205.307.045.597.067.87.067.5 0 1.115-.09 1.844-.272.704-.159 1.353-.489 1.944-.988.615-.478 1.127-1.125 1.535-1.944.41-.817.616-1.851.616-3.101V1.276c0-.295.101-.545.307-.75.204-.205.455-.306.75-.306h2.662c.296 0 .546.101.751.306.205.205.307.455.307.75V15.08c0 .796-.063 1.55-.187 2.266-.126.717-.313 1.404-.564 2.063-.5 1.273-1.217 2.375-2.15 3.306-.91.886-2.037 1.591-3.378 2.114-1.297.499-2.776.75-4.437.75-1.66 0-3.128-.251-4.402-.75M167.52 17.058h5.05c.296 0 .495-.097.598-.29.102-.192.096-.414-.018-.664l-2.661-5.625c-.115-.272-.262-.409-.444-.409s-.33.137-.444.41l-2.695 5.624c-.115.272-.115.5 0 .681.113.182.317.273.613.273m-9.999 7.158L169.362.594c.137-.273.364-.409.683-.409.318 0 .546.136.682.41l11.842 23.621c.138.25.154.466.052.648-.103.182-.302.273-.597.273h-3.106c-.296 0-.592-.091-.887-.273-.297-.182-.501-.41-.614-.682l-1.025-2.045c-.136-.25-.347-.466-.63-.648-.286-.18-.576-.272-.871-.272h-9.692c-.296 0-.592.091-.887.272-.297.182-.501.41-.615.682l-.99 2.01c-.136.274-.347.501-.631.683-.285.182-.575.273-.87.273H158.1c-.296 0-.494-.091-.597-.273-.103-.182-.098-.398.017-.648M213.386 21.966v2.114c0 .295-.101.545-.306.75-.205.204-.455.307-.751.307h-15.87c-.295 0-.546-.103-.75-.307-.205-.205-.307-.455-.307-.75V1.242c0-.295.102-.546.307-.75.204-.205.455-.307.75-.307h2.662c.296 0 .546.102.752.307.204.204.307.455.307.75v18.61c0 .296.102.546.306.75.205.206.455.307.752.307h11.09c.297 0 .547.103.752.307.205.205.306.455.306.75" transform="translate(.683 118.056)"/>
        </g>
        <mask id="prefix__c" fill="#fff">
            <use xlink:href="#prefix__a"/>
        </mask>
        <path fill="url(#prefix__b)" d="M146.608 4.38c-5.588 2.428-10.556 5.616-14.905 9.564-.62.564-1.23 1.144-1.825 1.74-.563.562-1.11 1.137-1.645 1.723-.186.203-.363.413-.546.62-.341.385-.68.77-1.01 1.166-.217.26-.426.525-.637.79-.281.35-.56.701-.832 1.06-.225.295-.443.594-.661.894-.244.336-.485.674-.721 1.016-.225.325-.447.652-.664.983-.214.325-.424.655-.632.986-.22.352-.442.706-.655 1.065-.189.317-.37.638-.553.96-.217.38-.435.76-.643 1.148-.161.3-.313.608-.47.912-.214.417-.433.831-.638 1.256L106.927 5.042c-.556-1.11-1.482-1.665-2.777-1.665-1.297 0-2.221.555-2.776 1.665L87.55 32.618v.717c0-.3-.026-27.324-.078-27.601-.105-.555-.312-1.064-.625-1.526-.156-.23-.338-.451-.547-.659-.208-.208-.428-.39-.66-.546-.694-.468-1.493-.702-2.394-.702h-10.83c-.903 0-1.701.234-2.395.702-.232.156-.451.338-.66.546-.208.208-.39.428-.546.659-.312.462-.52.97-.625 1.526-.052.277-.078.565-.078.866v56.024c0 5.086-.833 9.292-2.499 12.619-.416.832-.86 1.621-1.328 2.366-.703 1.118-1.465 2.14-2.285 3.062-.82.923-1.699 1.749-2.636 2.476-.601.51-1.218.975-1.848 1.396-1.892 1.266-3.914 2.142-6.066 2.626-.74.185-1.452.348-2.134.486-1.366.278-2.616.462-3.749.554-.567.047-1.104.07-1.613.07-.833 0-1.705-.052-2.616-.156-.305-.034-.613-.075-.926-.122-.312-.046-.63-.098-.958-.155-.654-.116-1.337-.254-2.048-.417-.356-.08-.719-.167-1.089-.26-2.014-.484-4-1.36-5.961-2.626-.654-.421-1.304-.887-1.952-1.396-.903-.761-1.754-1.608-2.552-2.54-1.33-1.552-2.516-3.34-3.558-5.364-1.665-3.327-2.499-7.533-2.499-12.62V6.6c0-.3-.026-.59-.078-.866-.104-.555-.313-1.064-.625-1.526-.156-.23-.338-.451-.546-.659-.208-.208-.428-.39-.66-.546-.695-.468-1.494-.702-2.395-.702H4.523c-.833 0-1.588.234-2.265.702-.225.156-.443.338-.65.546-.209.208-.391.428-.547.659-.313.462-.521.97-.625 1.526-.052.277-.078.565-.078.866v56.163c0 1.641.064 3.239.19 4.794.064.777.144 1.544.24 2.299.381 3.022 1.017 5.87 1.909 8.544.222.67.46 1.327.716 1.975 2.034 5.268 4.997 9.755 8.884 13.45.452.45.919.89 1.4 1.318 2.408 2.138 5.196 3.987 8.363 5.547 1.267.624 2.595 1.202 3.983 1.733 5.183 2.032 11.153 3.05 17.91 3.05.973 0 1.925-.026 2.867-.068l1.964-.049c.56-.068 1.106-.147 1.647-.23 4.184-.452 8.047-1.345 11.571-2.703 5.462-2.125 10.044-4.992 13.746-8.597 1.518-1.517 2.888-3.15 4.126-4.887h48.846c.383.407.762.816 1.158 1.212 4.767 4.762 10.343 8.528 16.73 11.302 6.388 2.772 13.19 4.16 20.41 4.16 7.312 0 14.162-1.388 20.548-4.16.798-.348 1.583-.71 2.358-1.087 5.41-2.645 10.2-6.048 14.373-10.215.595-.595 1.176-1.203 1.74-1.823.565-.62 1.114-1.253 1.648-1.9 3.201-3.874 5.845-8.204 7.927-12.987 2.776-6.38 4.165-13.22 4.165-20.524 0-1.803-.086-3.581-.26-5.335-.174-1.754-.434-3.482-.781-5.187-.694-3.408-1.736-6.72-3.124-9.932-.695-1.607-1.45-3.16-2.27-4.663-.818-1.502-1.699-2.952-2.641-4.35-1.887-2.797-4.021-5.386-6.404-7.767-.596-.595-1.205-1.175-1.826-1.739-4.35-3.948-9.316-7.136-14.905-9.564C181.18 1.608 174.33.221 167.018.221c-7.22 0-14.022 1.387-20.41 4.16m10.594 81.606c-1.043-.356-2.066-.77-3.07-1.245-4.018-1.894-7.528-4.437-10.53-7.627-2.253-2.392-4.153-5.057-5.703-7.995-.258-.49-.507-.986-.746-1.492-.24-.505-.468-1.017-.687-1.537-.658-1.56-1.193-3.153-1.604-4.777-.41-1.626-.698-3.283-.863-4.973-.11-1.127-.164-2.268-.164-3.424 0-.566.014-1.13.041-1.69.11-2.246.438-4.45.986-6.613.274-1.083.603-2.155.987-3.216.192-.531.397-1.06.617-1.586 1.097-2.629 2.437-5.05 4.021-7.263.633-.886 1.306-1.738 2.018-2.558.356-.41.721-.81 1.096-1.204 3.003-3.141 6.513-5.662 10.53-7.557 1.005-.473 2.028-.887 3.07-1.243 1.564-.533 3.17-.933 4.817-1.2 1.648-.266 3.337-.4 5.07-.4 1.731 0 3.42.134 5.067.4 1.648.267 3.253.667 4.817 1.2 1.041.356 2.065.77 3.07 1.243 4.017 1.895 7.527 4.416 10.53 7.557.375.393.74.795 1.096 1.204.711.82 1.383 1.672 2.017 2.558 1.583 2.214 2.923 4.634 4.02 7.263.22.526.425 1.055.618 1.586.383 1.061.713 2.133.987 3.216.55 2.164.88 4.367.988 6.612.028.561.042 1.125.042 1.691 0 1.156-.055 2.297-.165 3.424-.165 1.69-.453 3.347-.865 4.973-.412 1.624-.947 3.217-1.604 4.777-.22.52-.449 1.032-.688 1.537-.238.506-.487 1.002-.746 1.492-1.55 2.938-3.45 5.603-5.7 7.995-3.003 3.19-6.513 5.733-10.53 7.627-1.005.474-2.029.89-3.07 1.245-3.127 1.066-6.422 1.598-9.885 1.598s-6.759-.532-9.885-1.598M91.377 70.912c-.464-.739-.464-1.663 0-2.774l10.968-22.881c.461-1.11 1.065-1.664 1.805-1.664s1.34.555 1.806 1.664l10.403 21.982s1.16 2.524.495 3.604c-.416.785-1.227 1.178-2.429 1.178h-20.55c-1.203 0-2.037-.369-2.498-1.11" mask="url(#prefix__c)"/>
        <g transform="translate(119.565 12.966)">
            <mask id="prefix__e" fill="#fff">
                <use xlink:href="#prefix__d"/>
            </mask>
            <path d="M.005 17.295l15.591 32.818S10.73 35.53 20.254 20.554L12.858.287S5.402 6.656.005 17.295" mask="url(#prefix__e)"/>
        </g>
        <g transform="translate(105.9 68.923)">
            <mask id="prefix__g" fill="#fff">
                <use xlink:href="#prefix__f"/>
            </mask>
            <path d="M11.111.232s3.975 7.73 5.982 10.938c3.042 4.86 6.084 9.114 6.084 9.114l-22.51-.268V3.098h8.01s2.941.172 2.434-2.866" mask="url(#prefix__g)"/>
        </g>
        <g transform="translate(79.255 3.412)">
            <mask id="prefix__i" fill="#fff">
                <use xlink:href="#prefix__h"/>
            </mask>
            <path d="M23.768 40.725V.142L8.454 29.286v32.812s0 12.152-7.908 23.697l27.984-.268V68.63H14.538s-3.605-.456-2.715-2.886c.89-2.43 11.945-25.018 11.945-25.018" mask="url(#prefix__i)"/>
        </g>
        <path fill="#4D4D4D" d="M9.342 157.426c-.075-1.641-1.2-2.412-2.44-2.412-1.187 0-2.325.808-2.451 2.412h4.891zm-2.426-2.992c1.883 0 3.084 1.401 3.084 3.282v.265H4.412c0 1.743 1.113 2.752 2.68 2.752 1.214 0 1.884-.593 2.263-1.123l.417.29c-.43.695-1.264 1.415-2.68 1.415-1.934 0-3.337-1.377-3.337-3.422 0-2.147 1.492-3.46 3.16-3.46zM18.106 158.196L15.957 161.151 15.186 161.151 17.701 157.741 15.401 154.598 16.184 154.598 18.106 157.287 20.027 154.598 20.811 154.598 18.511 157.741 21.026 161.151 20.256 161.151zM29.828 160.721c1.428 0 2.49-1.186 2.49-2.866 0-1.717-1.113-2.828-2.516-2.828-1.53 0-2.49 1.288-2.49 2.828 0 1.818 1.15 2.866 2.516 2.866zm-3.123-6.124h.632v1.212c.152-.252.86-1.375 2.44-1.375 1.87 0 3.198 1.426 3.198 3.421 0 2.02-1.289 3.46-3.135 3.46-1.491 0-2.287-1.01-2.503-1.415v3.612h-.632v-8.915zM44.077 157.426c-.075-1.641-1.201-2.412-2.44-2.412-1.188 0-2.325.808-2.451 2.412h4.891zm-2.427-2.992c1.883 0 3.085 1.401 3.085 3.282v.265h-5.587c0 1.743 1.111 2.752 2.68 2.752 1.213 0 1.883-.593 2.262-1.123l.418.29c-.43.695-1.265 1.415-2.68 1.415-1.935 0-3.338-1.377-3.338-3.422 0-2.147 1.492-3.46 3.16-3.46zM53.347 155.052c-1.555 0-2.023 1.276-2.023 2.639v3.46h-.632v-6.553h.632v1.174c.202-.657.96-1.338 2.023-1.338v.618zM59.24 161.15h.631v-6.553h-.632v6.554zm.315-8.813c.29 0 .519.228.519.518 0 .29-.229.518-.519.518-.29 0-.518-.227-.518-.518 0-.29.228-.518.518-.518zM71.44 157.426c-.075-1.641-1.2-2.412-2.44-2.412-1.188 0-2.326.808-2.452 2.412h4.892zm-2.427-2.992c1.884 0 3.085 1.401 3.085 3.282v.265H66.51c0 1.743 1.112 2.752 2.68 2.752 1.214 0 1.884-.593 2.263-1.123l.417.29c-.43.695-1.264 1.415-2.68 1.415-1.934 0-3.338-1.377-3.338-3.422 0-2.147 1.492-3.46 3.16-3.46zM83.073 156.896v4.255h-.633v-4.205c0-1.2-.757-1.932-1.782-1.932-1.15 0-1.971.859-1.971 2.134v4.003h-.632v-6.554h.632v1.036c.328-.657 1.124-1.2 2.047-1.2 1.353 0 2.339.935 2.339 2.463M94.44 155.987c-.24-.279-.985-.96-2.161-.96-1.504 0-2.617 1.237-2.617 2.84 0 1.567 1.15 2.854 2.63 2.854 1.213 0 1.934-.732 2.187-1.01l.228.556c-.203.265-1.063 1.048-2.428 1.048-1.909 0-3.287-1.528-3.287-3.448 0-1.918 1.416-3.433 3.287-3.433 1.302 0 2.124.669 2.415.997l-.253.556zM100.638 161.15h.632v-6.553h-.632v6.554zm.316-8.813c.29 0 .519.228.519.518 0 .29-.229.518-.519.518-.291 0-.519-.227-.519-.518 0-.29.228-.518.519-.518zM109.817 160.734c1.112 0 1.884-.682 1.884-1.591 0-.934-.746-1.566-1.896-1.566-1.163 0-1.896.682-1.896 1.566 0 .871.733 1.59 1.908 1.59m-.038-3.736c.897 0 1.592.378 1.883.707v-.998c0-1.098-.72-1.692-1.794-1.692-.872 0-1.568.329-2.023.606l-.266-.492c.354-.228 1.214-.694 2.326-.694 1.632 0 2.39.946 2.39 2.31v4.407h-.519l-.114-.619c-.353.404-.935.783-1.883.783-1.492 0-2.515-.96-2.515-2.172 0-1.237 1.061-2.146 2.515-2.146M131.615 157.426c-.075-1.641-1.2-2.412-2.44-2.412-1.188 0-2.325.808-2.451 2.412h4.891zm-2.426-2.992c1.883 0 3.084 1.401 3.084 3.282v.265h-5.587c0 1.743 1.111 2.752 2.68 2.752 1.213 0 1.883-.593 2.262-1.123l.418.29c-.43.695-1.264 1.415-2.68 1.415-1.935 0-3.338-1.377-3.338-3.422 0-2.147 1.492-3.46 3.161-3.46zM140.898 155.027c-1.429 0-2.49 1.187-2.49 2.866 0 1.717 1.112 2.828 2.515 2.828 1.53 0 2.49-1.288 2.49-2.828 0-1.818-1.15-2.866-2.515-2.866zm3.122 6.123h-.632v-1.212c-.151.253-.86 1.377-2.44 1.377-1.87 0-3.198-1.427-3.198-3.422 0-2.02 1.29-3.46 3.136-3.46 1.49 0 2.287 1.01 2.502 1.414v-3.825h.632v9.128zM150.407 158.853v-4.255h.632v4.204c0 1.2.758 1.931 1.782 1.931 1.15 0 1.972-.857 1.972-2.133v-4.002h.632v6.552h-.632v-1.035c-.328.657-1.124 1.2-2.047 1.2-1.353 0-2.34-.934-2.34-2.462M166.793 155.987c-.24-.279-.987-.96-2.162-.96-1.504 0-2.617 1.237-2.617 2.84 0 1.567 1.151 2.854 2.63 2.854 1.214 0 1.934-.732 2.187-1.01l.228.556c-.203.265-1.063 1.048-2.428 1.048-1.909 0-3.287-1.528-3.287-3.448 0-1.918 1.416-3.433 3.287-3.433 1.302 0 2.124.669 2.415.997l-.253.556zM175.089 160.734c1.112 0 1.883-.682 1.883-1.591 0-.934-.745-1.566-1.896-1.566-1.163 0-1.896.682-1.896 1.566 0 .871.733 1.59 1.909 1.59m-.039-3.736c.898 0 1.593.378 1.884.707v-.998c0-1.098-.72-1.692-1.795-1.692-.872 0-1.567.329-2.022.606l-.266-.492c.354-.228 1.213-.694 2.326-.694 1.631 0 2.389.946 2.389 2.31v4.407h-.518l-.114-.619c-.353.404-.935.783-1.884.783-1.491 0-2.515-.96-2.515-2.172 0-1.237 1.062-2.146 2.515-2.146M183.928 153.234h.632v1.364h1.542v.568h-1.542v3.686c0 1.427.328 1.794 1.314 1.794.14 0 .291-.013.291-.013v.568s-.303.025-.543.025c-1.037 0-1.694-.644-1.694-1.969v-4.091h-.81v-.568h.81v-1.364zM191.945 161.15h.632v-6.553h-.632v6.554zm.315-8.813c.29 0 .518.228.518.518 0 .29-.227.518-.518.518-.29 0-.518-.227-.518-.518 0-.29.227-.518.518-.518zM200.795 161.15L198.166 154.597 198.848 154.597 201.124 160.393 203.399 154.597 204.082 154.597 201.453 161.15zM211.77 160.734c1.113 0 1.884-.682 1.884-1.591 0-.934-.745-1.566-1.896-1.566-1.163 0-1.896.682-1.896 1.566 0 .871.733 1.59 1.909 1.59m-.039-3.736c.898 0 1.593.378 1.884.707v-.998c0-1.098-.72-1.692-1.795-1.692-.872 0-1.567.329-2.022.606l-.266-.492c.354-.228 1.213-.694 2.326-.694 1.631 0 2.389.946 2.389 2.31v4.407h-.518l-.114-.619c-.354.404-.935.783-1.884.783-1.491 0-2.515-.96-2.515-2.172 0-1.237 1.062-2.146 2.515-2.146"/>
    </g>
</svg>
